<?xml version="1.0" encoding="utf-8"?>
<!-- Generator: Adobe Illustrator 17.0.0, SVG Export Plug-In . SVG Version: 6.00 Build 0)  -->
<!DOCTYPE svg PUBLIC "-//W3C//DTD SVG 1.1//EN" "http://www.w3.org/Graphics/SVG/1.1/DTD/svg11.dtd">
<svg version="1.1" id="Layer_1" xmlns="http://www.w3.org/2000/svg" xmlns:xlink="http://www.w3.org/1999/xlink" x="0px" y="0px"
	 width="200px" height="200px" viewBox="0 0 200 200" enable-background="new 0 0 200 200" xml:space="preserve">
<g>
	<g>
		
			<image overflow="visible" enable-background="new    " width="925" height="1021" xlink:href="3C91CCCB.png"  transform="matrix(0.2384 0 0 0.2386 -3.2303 -7.4276)">
		</image>
	</g>
	<polygon fill="#FFC545" points="174.23,142.857 100,185.714 25.77,142.857 25.77,57.143 100,14.286 174.23,57.143 	"/>
	<g>
		<path fill="#3B4654" d="M55.595,109.263c-2.671-0.579-5.143-1.545-7.417-2.898c-2.274-1.352-4.26-2.962-5.955-4.83
			c-1.697-1.868-3.015-3.96-3.952-6.279c-0.939-2.318-1.408-4.767-1.408-7.343c0-3.027,0.65-5.876,1.949-8.549
			s3.048-5.008,5.251-7.005c2.201-1.996,4.8-3.574,7.796-4.734c2.995-1.158,6.188-1.739,9.583-1.739
			c4.764,0,9.293,0.677,13.589,2.032c4.293,1.355,8.174,3.258,11.639,5.709L74.869,84.175c-1.878-1.097-3.953-1.968-6.227-2.613
			c-2.274-0.644-4.675-0.968-7.201-0.968c-2.311,0-4.26,0.711-5.847,2.129c-1.588,1.42-2.382,3.162-2.382,5.226
			c0,1.679,0.648,3.259,1.944,4.742c1.294,1.291,2.914,2.129,4.857,2.516c1.942,0.387,3.957,0.646,6.045,0.774
			c3.311,0.13,6.424,0.742,9.339,1.838c2.912,1.099,5.414,2.564,7.502,4.403s3.742,4.032,4.967,6.58
			c1.223,2.55,1.836,5.371,1.836,8.468c0,3.032-0.65,5.888-1.945,8.563c-1.297,2.678-3.045,5-5.24,6.968
			c-2.197,1.968-4.791,3.531-7.781,4.692c-2.989,1.161-6.177,1.742-9.562,1.742c-5.548,0-10.735-0.909-15.562-2.728
			c-4.827-1.817-9.077-4.318-12.75-7.501l11.586-10.383c2.236,1.872,4.781,3.323,7.633,4.354c2.851,1.032,5.901,1.548,9.149,1.548
			c2.237,0,4.15-0.707,5.739-2.124c1.587-1.417,2.382-3.155,2.382-5.218c0-1.095-0.254-2.156-0.758-3.188
			c-0.506-1.031-1.337-1.836-2.491-2.416c-1.012-0.514-2.13-0.885-3.356-1.11c-1.229-0.225-2.49-0.387-3.79-0.483
			s-2.599-0.193-3.898-0.29C57.76,109.601,56.605,109.457,55.595,109.263z"/>
		<path fill="#3B4654" d="M136.262,65.886c5.485,0,10.647,0.904,15.484,2.709c4.835,1.806,9.095,4.291,12.776,7.451l-11.586,10.451
			c-2.165-1.87-4.674-3.322-7.525-4.354c-2.852-1.031-5.9-1.549-9.149-1.549c-3.394,0-6.588,0.581-9.582,1.742
			c-2.996,1.161-5.614,2.727-7.851,4.693c-2.238,1.969-4.006,4.291-5.306,6.967c-1.299,2.678-1.949,5.533-1.949,8.564
			c0,3.033,0.65,5.888,1.949,8.563c1.3,2.678,3.067,5.018,5.306,7.016c2.236,2.001,4.854,3.565,7.851,4.693
			c2.994,1.13,6.188,1.693,9.582,1.693c3.249,0,6.298-0.516,9.149-1.548c2.852-1.031,5.36-2.451,7.525-4.258l11.586,10.354
			c-3.682,3.161-7.941,5.646-12.776,7.45c-4.837,1.808-9.999,2.71-15.484,2.71c-5.63,0-10.936-0.968-15.917-2.903
			c-4.98-1.936-9.33-4.563-13.047-7.887c-3.719-3.321-6.659-7.209-8.825-11.66c-2.165-4.451-3.248-9.192-3.248-14.225
			s1.083-9.773,3.248-14.225c2.166-4.452,5.106-8.338,8.825-11.661c3.717-3.321,8.066-5.951,13.047-7.886
			C125.326,66.853,130.632,65.886,136.262,65.886z"/>
	</g>
</g>
</svg>
