<?xml version="1.0" encoding="utf-8"?>
<!-- Generator: Adobe Illustrator 17.0.0, SVG Export Plug-In . SVG Version: 6.00 Build 0)  -->
<!DOCTYPE svg PUBLIC "-//W3C//DTD SVG 1.1//EN" "http://www.w3.org/Graphics/SVG/1.1/DTD/svg11.dtd">
<svg version="1.1" id="Layer_1" xmlns="http://www.w3.org/2000/svg" xmlns:xlink="http://www.w3.org/1999/xlink" x="0px" y="0px"
	 width="1147.312px" height="1174.85px" viewBox="0 0 1147.312 1174.85" enable-background="new 0 0 1147.312 1174.85"
	 xml:space="preserve">
<path fill="none" d="M894.083,535.954c1.417-6.566-0.146-13.309-0.986-19.86c-0.917-7.152-0.86-14.291-1.29-21.478
	c-0.797-13.314,0.341-26.626-0.513-39.915c-0.787-12.256-2.937-25.335-11.238-34.934c-5.43-6.279-10.188-11.707-12.635-18.929
	c-3.072-1.143-5.84-3.52-7.789-7.446c-4.665-9.395-4.201-18.256-5.146-28.364c-1.153-12.339-3.887-24.478-4.557-36.879
	c-0.985-18.248-1.816-37.334-15.067-51.441c-3.938-4.193-5.051-8.969-4.314-13.379c-15.883-23.153-31.83-46.476-55.712-62.132
	c-11.59-7.598-23.197-16.11-35.524-22.413c-8.009-4.095-17.084-8.07-21.99-15.956c-2.7,0.795-5.559,0.829-8.265-0.288
	c-22.676-9.355-47.77-21.213-66.013-38.026c-7.472-6.886-11.557-17.199-20.088-22.872c-7.228-4.806-14.112-8.291-17.977-15.649
	c-3.039,1.412-6.762,1.677-11.02,0.14c-5.382-1.943-10.861-6.459-16.257-7.803c-6.676-1.663-13.728-1.256-20.566-2.078
	c-12.527-1.506-24.806-3.281-36.656-7.78c-10.749-4.081-23.896-10.237-30.201-20.372c-0.762-1.225-1.332-2.588-1.968-3.899
	c-0.616-0.365-1.846-1.037-3.639-1.326c-3.587-0.577-7.298-0.489-10.918-0.379c-3.556,0.108-6.493-0.753-8.84-2.234
	c-9.054,3.433-20.238,0.201-29.753,1.39c-8.019,1.002-15.913,5.547-23.448,8.236c-3.031,1.082-6.077,2.103-9.132,3.092
	c-2.047,3.012-5.014,5.283-8.715,5.843c-5.192,0.785-10.03,7.752-14.726,11.524c-7.012,5.632-14.581,10.795-23.173,13.586
	c-0.556,4.23-2.8,8.321-7.313,11.293c-7.224,4.756-15.051,8.662-22.075,13.712c-6.891,4.955-11.94,11.924-17.552,18.21
	c-9.696,10.861-19.005,22.044-31.505,29.708c-6.253,8.519-19.726,12.351-28.994,15.437c-12.677,4.222-25.534,7.835-38.022,12.532
	c-5.966,4.554-12.333,10.537-18.296,16.507c0.467,1.6,0.694,3.385,0.628,5.357c-0.394,11.723-4.184,22.954-4.293,34.658
	c-0.019,1.981-0.022,3.962-0.012,5.941c0.678,1.107,1.279,2.281,1.774,3.524c4.953,12.439,18.571,18.87,19.764,32.934
	c1.071,12.631-8.604,23.998-10.985,36.185c-0.666,3.41-2.093,5.998-3.976,7.877c-0.206,2.079-0.428,4.153-0.697,6.217
	c-2.637,20.247-1.488,40.694-4.286,60.871c-0.764,5.509-1.681,11.331-1.873,17.086c0.191,2.904,0.341,5.811,0.428,8.722
	c0.07,0.498,0.114,1.002,0.203,1.496c1.663,9.231,3.447,18.375,4.604,27.69c0.267,2.148-0.093,4.211-0.893,6.108
	c5.705,18.188,11.509,36.172,19.145,53.702c6.752,15.5,13.612,30.969,19.184,46.926c4.072,6.037,7.754,12.329,10.949,18.928
	c5.021,10.37,8.521,21.483,13.77,31.709c10.931,21.294,25.778,40.42,31.879,63.948c0.678,2.613,0.741,5.029,0.34,7.218
	c1.362,3.038,2.683,6.091,3.909,9.177c4.169,10.494,10.593,21.716,12.786,32.797c0.999,5.047,1.486,10.178,2.15,15.266
	c6.137,11.13,11.659,22.521,15.648,34.383c0.966,1.087,1.942,2.166,2.929,3.231c3.809,4.11,4.936,8.767,4.297,13.094
	c0.318,0.495,0.602,1.02,0.846,1.576c6.115,13.908,13.582,27.128,22.048,39.74c7.117,10.601,14.121,22.413,23.692,31.019
	c14.792,13.302,46.253,19.614,51.467,41.727c3.087,1.14,5.867,3.524,7.811,7.489c7.868,16.049,16.943,30.69,23.423,47.492
	c5.73,14.857,13.792,27.85,21.321,41.798c7.757,14.37,11.526,28.203,15.143,43.95c1.845,8.034,4.427,15.964,6.943,23.813
	c2.066,6.443,5.876,11.588,9.182,17.424c10.889-4.487,21.775-9.007,32.946-12.699c20.87-6.897,43.171-10.539,65.169-10.196
	c16.945,0.265,33.841,1.861,50.737,0.794c3.149-0.712,6.261-1.573,9.314-2.686c1.773-0.623,3.528-1.297,5.276-1.989
	c11.491-4.971,22.93-9.81,34.881-13.579c23.78-7.499,49.196-10.818,74.057-11.868c30.053-1.27,60.193,0.913,90.236,0.276
	c-0.471-2.344-0.38-4.781,0.501-7.126c-1.437,3.827-0.108,0.15-0.203-1.87c-0.081-1.524-0.142-3.048-0.186-4.573
	c0.002-4.378,0.436-8.837,1.811-13.02c2.579-7.842,7.345-15.783,8.07-24.106c1.717-19.692,0.185-37.748-6.68-56.337
	c-7.59-20.553-16.203-40.587-18.916-62.516c-1.25-10.108-2.812-19.758-6.152-29.444c-3.243-9.403-8.398-17.821-7.263-28.154
	c0.062-0.561,0.143-1.115,0.243-1.663c-1.858-2.432-3.056-5.555-3.169-9.391c-0.377-12.76-2.803-25.659-4.499-38.31
	c-1.581-11.795-5.718-22.764-7.6-34.425c-2.135-13.224-1.075-26.58-2.23-39.864c-1.045-12.024-4.753-23.648-6.154-35.662
	c-0.359-3.075,0.544-5.972,2.19-8.454c1.316-6.775,6.431-12.681,15.368-12.681c0.664,0,1.303,0.04,1.924,0.104
	c4.078-1.956,8.914-2.15,13.322-0.447c3.077-3.113,6.536-5.894,10.457-8.159c2.803-4.324,3.987-9.749,5.82-14.448
	c2.316-5.939,4.853-11.682,8.075-17.188c5.541-9.471,12.323-18.764,12.747-30.09c0.129-3.444,1.132-6.311,2.693-8.623
	C893.577,541.6,893.446,538.906,894.083,535.954z"/>
<path fill="#3B4654" d="M951.997,1135.254h6.058c0.005-0.544-0.02-1.147-0.064-1.786
	C956.006,1134.108,954.009,1134.7,951.997,1135.254z"/>
<path d="M474.839,425.861c0,0,1.798-2.039,5.2-5.365c1.707-1.656,3.807-3.641,6.284-5.844c2.47-2.211,5.313-4.646,8.524-7.168
	c1.588-1.284,3.305-2.539,5.049-3.884c1.792-1.278,3.609-2.654,5.548-3.966c1.933-1.321,3.914-2.688,6.004-3.987
	c2.052-1.36,4.237-2.605,6.448-3.89c2.201-1.303,4.532-2.464,6.842-3.726c1.184-0.577,2.376-1.156,3.573-1.739
	c1.195-0.589,2.399-1.175,3.641-1.692c1.233-0.537,2.471-1.076,3.712-1.616c1.242-0.54,2.529-0.983,3.796-1.481
	c2.525-1.024,5.14-1.833,7.744-2.676c1.294-0.447,2.631-0.753,3.954-1.097c1.325-0.336,2.65-0.672,3.971-1.007
	c1.34-0.258,2.676-0.516,4.009-0.773c1.332-0.263,2.659-0.529,4.003-0.663c2.677-0.335,5.325-0.728,7.973-0.796
	c1.32-0.069,2.632-0.138,3.935-0.206c1.305,0.026,2.601,0.052,3.885,0.078c2.573-0.026,5.087,0.275,7.545,0.547
	c0.614,0.067,1.226,0.133,1.833,0.199c0.607,0.068,1.199,0.218,1.794,0.323c1.186,0.23,2.357,0.457,3.513,0.681
	c0.577,0.112,1.151,0.223,1.72,0.334c0.565,0.131,1.114,0.309,1.665,0.46c1.099,0.314,2.181,0.622,3.245,0.926
	c2.152,0.529,4.118,1.384,6.037,2.103c0.956,0.367,1.893,0.726,2.808,1.078c0.898,0.392,1.748,0.837,2.585,1.248
	c1.666,0.842,3.264,1.603,4.728,2.385c1.416,0.869,2.741,1.682,3.966,2.433c0.612,0.375,1.198,0.735,1.759,1.08
	c0.28,0.172,0.554,0.34,0.821,0.504c0.253,0.185,0.499,0.366,0.74,0.542c3.813,2.844,5.991,4.47,5.991,4.47s-2.254-1.51-6.2-4.152
	c-0.246-0.165-0.498-0.335-0.757-0.509c-0.272-0.152-0.552-0.309-0.838-0.469c-0.572-0.32-1.17-0.654-1.793-1.003
	c-1.245-0.696-2.591-1.45-4.03-2.254c-1.483-0.717-3.098-1.405-4.776-2.171c-0.847-0.366-1.692-0.794-2.589-1.157
	c-0.913-0.324-1.846-0.656-2.8-0.995c-1.911-0.662-3.866-1.458-6-1.925c-1.054-0.273-2.126-0.551-3.215-0.832
	c-0.545-0.135-1.089-0.297-1.647-0.412c-0.563-0.095-1.129-0.19-1.7-0.286c-1.14-0.192-2.296-0.387-3.466-0.584
	c-0.586-0.088-1.169-0.222-1.767-0.273c-0.598-0.05-1.2-0.1-1.805-0.15c-1.208-0.106-2.43-0.213-3.663-0.322
	c-1.229-0.162-2.485-0.081-3.744-0.124c-1.26-0.015-2.53-0.031-3.81-0.046c-1.278,0.078-2.565,0.156-3.86,0.235
	c-2.596,0.086-5.195,0.495-7.819,0.845c-1.317,0.141-2.619,0.415-3.926,0.684c-1.307,0.263-2.619,0.526-3.932,0.791
	c-1.297,0.34-2.596,0.681-3.897,1.023c-1.299,0.347-2.608,0.663-3.881,1.106c-2.569,0.809-5.15,1.584-7.649,2.574
	c-1.253,0.481-2.526,0.907-3.756,1.43c-1.23,0.524-2.457,1.046-3.678,1.566c-1.231,0.5-2.425,1.069-3.611,1.642
	c-1.189,0.567-2.371,1.13-3.547,1.691c-2.296,1.231-4.612,2.36-6.802,3.633c-1.1,0.628-2.19,1.252-3.27,1.869
	c-1.081,0.617-2.119,1.282-3.169,1.903c-2.104,1.237-4.101,2.545-6.053,3.809c-1.958,1.255-3.795,2.577-5.608,3.803
	c-1.765,1.294-3.504,2.5-5.114,3.738c-1.621,1.225-3.167,2.407-4.616,3.561c-1.468,1.131-2.828,2.243-4.106,3.29
	c-2.555,2.095-4.727,3.989-6.496,5.572c-1.758,1.594-3.142,2.847-4.057,3.731C475.327,425.389,474.839,425.861,474.839,425.861z"/>
<path fill="none" stroke="#000000" stroke-width="1.9508" stroke-miterlimit="10" d="M549.364,407.57
	c-25.386,9.71-43.556,29.021-43.556,29.021c102.661-0.244,100.71-27.067,100.71-27.067
	C586.424,398.89,566.29,401.096,549.364,407.57z"/>
<path fill="none" stroke="#000000" stroke-width="1.9508" stroke-miterlimit="10" d="M460.94,386.601"/>
<path fill="#020202" stroke="#000000" stroke-width="1.9508" stroke-miterlimit="10" d="M548.482,326.37
	c-35.846,1.951-45.6,9.754-45.6,9.754c-19.508-0.975-43.649,9.998-43.649,9.998c-11.461,8.047-5.852,43.405-5.852,43.405
	c1.951-4.633,9.266-6.828,9.266-6.828c9.998-7.072,48.77-18.776,48.77-18.776c19.264-6.584,50.721-7.072,50.721-7.072
	c25.117-4.145,88.274-8.535,88.274-8.535c-10.242-6.34-44.137-16.582-44.137-16.582C580.183,325.639,548.482,326.37,548.482,326.37z
	"/>
<path fill="#303030" stroke="#000000" stroke-width="1.9508" stroke-miterlimit="10" d="M580.101,402.777
	c-14.062-2.439-35.684,7.884-35.684,7.884c-6.828,18.614,12.762,21.621,12.762,21.621c4.064-0.406,25.36-5.69,25.36-5.69
	c2.926-1.382,4.308-3.739,4.308-3.739C592.944,409.442,580.101,402.777,580.101,402.777z"/>
<linearGradient id="SVGID_1_" gradientUnits="userSpaceOnUse" x1="316.674" y1="854.718" x2="336.67" y2="854.718" gradientTransform="matrix(1 0 0 -1 244 1269.85)">
	<stop  offset="0" style="stop-color:#000000"/>
	<stop  offset="1" style="stop-color:#333333"/>
</linearGradient>
<circle fill="url(#SVGID_1_)" stroke="#000000" stroke-width="1.9508" stroke-miterlimit="10" cx="570.672" cy="415.132" r="9.998"/>
<circle fill="#FFFFFF" stroke="#000000" stroke-width="1.9508" stroke-miterlimit="10" cx="577.5" cy="413.912" r="2.439"/>
<path d="M505.321,450.978c0,0,1.685,0.248,4.637,0.616c2.95,0.383,7.177,0.823,12.25,1.267c2.537,0.213,5.287,0.423,8.197,0.608
	c2.909,0.19,5.98,0.32,9.156,0.447c6.353,0.203,13.132,0.261,19.899-0.009c1.691-0.079,3.381-0.158,5.065-0.237
	c1.681-0.125,3.359-0.21,5.016-0.366c3.316-0.303,6.581-0.609,9.721-1.057c1.571-0.215,3.115-0.433,4.619-0.693
	c1.507-0.244,2.983-0.478,4.405-0.778c2.857-0.541,5.536-1.163,8-1.775c1.227-0.327,2.403-0.64,3.522-0.938
	c1.109-0.335,2.16-0.654,3.148-0.952c1.982-0.588,3.657-1.257,5.068-1.729c2.767-1.093,4.348-1.718,4.348-1.718
	s-0.381,0.19-1.094,0.546c-0.718,0.347-1.753,0.9-3.109,1.523c-1.379,0.563-3.021,1.345-4.972,2.064
	c-0.975,0.365-2.012,0.754-3.106,1.163c-1.112,0.356-2.282,0.73-3.502,1.121c-2.454,0.738-5.132,1.491-8.002,2.122
	c-1.428,0.352-2.909,0.638-4.423,0.936c-1.51,0.324-3.069,0.554-4.651,0.81c-3.166,0.502-6.453,0.927-9.804,1.234
	c-1.674,0.169-3.367,0.266-5.064,0.404c-1.699,0.09-3.405,0.181-5.111,0.271c-3.415,0.101-6.83,0.16-10.191,0.113
	c-3.361-0.011-6.665-0.182-9.86-0.341c-6.388-0.357-12.328-0.981-17.396-1.658c-5.07-0.664-9.26-1.454-12.187-2.002
	C506.972,451.394,505.321,450.978,505.321,450.978z"/>
<path d="M395.832,427.812c0.186,4.448,0.334,8.897,0.446,13.348c0.112,4.45,0.287,8.9,0.337,13.353l0.17,13.358
	c0.029,1.112-0.016,2.231-0.023,3.347l-0.047,3.351l-0.095,6.706l-0.001,0.091l-0.05,0.137c-1.026,2.781-2.053,5.578-3.041,8.382
	c-0.993,2.804-1.964,5.616-2.899,8.439l-1.393,4.238c-0.45,1.417-0.923,2.827-1.354,4.25c-0.889,2.838-1.747,5.684-2.57,8.54
	c-0.429,1.423-0.808,2.86-1.207,4.291c-0.394,1.432-0.8,2.862-1.155,4.303l-1.124,4.31l-1.034,4.33
	c-0.364,1.44-0.636,2.896-0.949,4.346c-0.309,1.45-0.617,2.901-0.851,4.362c-0.239,1.46-0.541,2.914-0.73,4.379l-0.571,4.395
	l-0.138-0.088l-0.152,2.438v0.19l0.059,0.184c-0.282,0.623-0.486,1.315-0.732,1.993c-0.25,0.683-0.444,1.374-0.651,2.074
	c-0.231,0.692-0.369,1.406-0.564,2.11c-0.184,0.706-0.303,1.426-0.462,2.138c-0.146,0.715-0.23,1.44-0.351,2.159
	c-0.127,0.719-0.151,1.449-0.233,2.174c-0.088,0.725-0.098,1.453-0.123,2.181c-0.032,0.728-0.056,1.457-0.003,2.183
	c0.044,0.726,0.033,1.458,0.121,2.179l0.278,2.165c0.093,0.722,0.302,1.421,0.446,2.134l0.239,1.065
	c0.101,0.349,0.228,0.69,0.34,1.036c0.236,0.687,0.453,1.384,0.704,2.066l0.917,1.982c0.159,0.327,0.292,0.669,0.472,0.985
	l0.57,0.933l1.139,1.87l-0.043-0.054c1.896,2.116,3.881,4.18,5.895,6.2c2.01,2.028,4.057,4.021,6.182,5.93
	c0.526,0.483,1.058,0.96,1.602,1.422c0.542,0.464,1.074,0.941,1.626,1.395c1.103,0.906,2.208,1.812,3.357,2.659
	c0.563,0.441,1.144,0.855,1.735,1.254c0.59,0.401,1.157,0.841,1.773,1.202c0.61,0.371,1.206,0.768,1.829,1.118l1.9,0.998
	l-1.949-0.908c-0.641-0.321-1.257-0.69-1.887-1.033c-0.638-0.334-1.225-0.746-1.837-1.122c-0.609-0.381-1.209-0.776-1.789-1.199
	c-1.186-0.811-2.328-1.68-3.47-2.552c-0.571-0.436-1.121-0.896-1.683-1.343c-0.563-0.445-1.115-0.905-1.66-1.371
	c-2.201-1.844-4.338-3.766-6.42-5.743c-2.073-1.991-4.104-4.012-6.076-6.119l-0.028-0.03l-0.016-0.025l-1.228-1.917l-0.614-0.961
	c-0.194-0.326-0.342-0.678-0.515-1.016l-1.002-2.051c-0.279-0.707-0.522-1.429-0.784-2.143c-0.126-0.359-0.265-0.715-0.379-1.078
	l-0.276-1.108c-0.168-0.741-0.401-1.472-0.515-2.224l-0.34-2.258c-0.107-0.754-0.115-1.516-0.176-2.275
	c-0.071-0.76-0.062-1.519-0.046-2.28c0.011-0.76-0.001-1.523,0.089-2.278c0.079-0.755,0.104-1.518,0.229-2.267
	c0.119-0.749,0.207-1.505,0.354-2.249c0.159-0.742,0.288-1.491,0.474-2.226c0.196-0.733,0.355-1.476,0.589-2.199
	c0.21-0.73,0.445-1.453,0.701-2.17c0.258-0.723,0.525-1.418,0.852-2.153l0.151,0.374l0.226-2.438v-0.051l-0.231-0.037l0.431-4.473
	c0.182-1.492,0.416-2.961,0.649-4.443c0.227-1.483,0.498-2.95,0.799-4.416c0.305-1.465,0.556-2.941,0.912-4.394l1.004-4.372
	l1.11-4.344c0.369-1.449,0.785-2.883,1.191-4.321c0.411-1.436,0.802-2.878,1.243-4.305c0.848-2.865,1.73-5.717,2.643-8.56
	c0.443-1.426,0.928-2.838,1.39-4.257l1.428-4.244c0.959-2.827,1.953-5.641,2.97-8.448c1.017-2.808,2.042-5.606,3.157-8.387
	l-0.052,0.228l0.236-6.642l0.118-3.323c0.031-1.109,0.099-2.214,0.095-3.327l0.119-13.346L395.832,427.812z"/>
<path fill="none" stroke="#000000" stroke-width="1.9508" stroke-miterlimit="10" d="M349.5,466.096
	c-38.041,10.729-45.112,42.43-45.112,42.43c47.551-1.219,89.981-33.651,89.981-33.651C385.346,459.513,349.5,466.096,349.5,466.096z
	"/>
<path fill="#303030" stroke="#000000" stroke-width="1.9508" stroke-miterlimit="10" d="M361.083,465.975
	c0,0-22.19,1.951-28.165,8.657c0,0-9.998,16.338,4.877,26.58c0,0,22.312-6.218,31.457-12.68
	C369.252,488.531,372.056,466.34,361.083,465.975z"/>
<circle stroke="#000000" stroke-width="1.9508" stroke-miterlimit="10" cx="351.939" cy="483.044" r="10.729"/>
<circle fill="#FFFFFF" stroke="#000000" stroke-width="1.9508" stroke-miterlimit="10" cx="360.108" cy="480.362" r="2.073"/>
<path fill="#020202" stroke="#000000" stroke-width="1.9508" stroke-miterlimit="10" d="M351.451,387.577
	c-25.604-8.535-70.229,22.434-70.229,22.434c-32.92,15.119-23.166,69.254-23.166,69.254c2.195-9.51,7.803-20.727,7.803-20.727
	c12.193-24.873,108.026-48.039,108.026-48.039l12.193-3.902C379.006,393.185,351.451,387.577,351.451,387.577z"/>
<path d="M816.393,611.919l1.089,12.739l1.131,12.734l2.347,25.459c0.795,8.485,1.629,16.965,2.5,25.441l2.637,25.424
	c1.818,16.942,3.904,33.853,6.263,50.716c0.585,4.217,1.233,8.423,1.884,12.628l1.047,6.295l1.132,6.277
	c0.385,2.091,0.831,4.167,1.244,6.251c0.438,2.077,0.93,4.141,1.398,6.21c1.063,4.092,2.137,8.213,3.765,12.051l0.041,0.096
	l0.016,0.086c1.216,6.626,2.539,13.247,3.922,19.848c0.702,3.299,1.408,6.598,2.151,9.888l1.126,4.932
	c0.388,1.641,0.75,3.289,1.161,4.924c0.799,3.277,1.593,6.554,2.442,9.818c0.405,1.637,0.851,3.263,1.3,4.888
	c0.455,1.623,0.868,3.26,1.368,4.87l1.455,4.845l1.595,4.8c0.561,1.589,1.177,3.158,1.763,4.741c0.622,1.567,1.364,3.083,2.042,4.63
	c-0.727-1.521-1.522-3.016-2.196-4.565c-0.636-1.564-1.315-3.114-1.916-4.693l-1.717-4.77l-1.577-4.818
	c-0.541-1.602-0.995-3.229-1.49-4.845c-0.49-1.617-0.976-3.236-1.423-4.865l-1.367-4.881l-1.284-4.903
	c-0.436-1.633-0.823-3.277-1.237-4.915l-1.202-4.923c-0.794-3.284-1.55-6.577-2.303-9.87c-1.485-6.593-2.907-13.194-4.229-19.83
	l0.056,0.181c-1.725-4.013-2.82-8.165-3.921-12.309c-0.483-2.084-0.99-4.165-1.441-6.255c-0.425-2.094-0.885-4.183-1.282-6.282
	l-1.169-6.299l-1.082-6.312c-0.673-4.214-1.345-8.429-1.952-12.651c-0.622-4.221-1.214-8.445-1.757-12.676
	c-0.542-4.231-1.064-8.463-1.56-12.699c-0.995-8.47-1.935-16.946-2.804-25.428l-1.281-12.725c-0.409-4.243-0.826-8.486-1.184-12.734
	c-0.745-8.493-1.453-16.989-2.121-25.488c-0.677-8.498-1.313-16.999-1.861-25.506C817.356,628.941,816.788,620.435,816.393,611.919z
	"/>
<path d="M463.947,926.324c0,0,0.251,0.541,0.72,1.557c0.462,1.019,1.168,2.501,2.011,4.41c1.688,3.819,4.171,9.246,6.96,15.838
	c2.796,6.589,6.084,14.268,9.416,22.574c1.649,4.16,3.354,8.458,5.085,12.825c1.692,4.384,3.41,8.837,5.129,13.291
	c1.628,4.489,3.289,8.964,4.854,13.396c1.534,4.444,3.126,8.786,4.519,13.043c1.412,4.25,2.796,8.35,3.937,12.297
	c1.168,3.937,2.34,7.635,3.229,11.111c0.925,3.463,1.831,6.62,2.389,9.485c0.309,1.423,0.598,2.755,0.866,3.986
	c0.262,1.232,0.539,2.355,0.664,3.397c0.599,4.136,0.942,6.499,0.942,6.499s-0.478-2.336-1.314-6.425
	c-0.171-1.027-0.5-2.137-0.818-3.353c-0.323-1.214-0.672-2.527-1.045-3.93c-0.691-2.817-1.743-5.927-2.739-9.355
	c-0.981-3.434-2.255-7.093-3.529-10.983c-1.246-3.899-2.767-7.945-4.182-12.181c-1.428-4.232-3.058-8.555-4.63-12.974
	c-1.6-4.41-3.308-8.862-4.966-13.33c-1.675-4.463-3.35-8.927-4.999-13.32c-1.69-4.379-3.352-8.688-4.961-12.859
	c-3.24-8.334-6.265-16.113-8.857-22.78C467.419,935.212,463.947,926.324,463.947,926.324z"/>
<path fill="#020202" stroke="#000000" stroke-width="1.9508" stroke-miterlimit="10" d="M803.062,611.919
	c0,0,13.331-74.781,10.729-100.466L803.062,611.919z"/>
<path d="M853.458,431.145c0,0,0.668-1.011,1.951-2.246c0.633-0.626,1.423-1.3,2.317-1.964c0.461-0.312,0.912-0.674,1.42-0.97
	c0.5-0.309,1.01-0.616,1.549-0.885c0.531-0.277,1.074-0.536,1.632-0.747c0.539-0.246,1.116-0.394,1.659-0.561
	c0.533-0.191,1.103-0.246,1.615-0.344c0.509-0.113,1.032-0.079,1.485-0.103c0.454-0.042,0.891,0.078,1.255,0.115
	c0.369,0.029,0.682,0.141,0.934,0.241c0.502,0.188,0.766,0.31,0.766,0.31s-0.312,0.037-0.815,0.075
	c-0.25,0.007-0.548,0.036-0.89,0.12c-0.34,0.09-0.712,0.106-1.115,0.25c-0.401,0.143-0.832,0.223-1.279,0.407
	c-0.446,0.183-0.916,0.329-1.394,0.551c-0.481,0.202-0.968,0.425-1.463,0.671c-0.497,0.232-1.001,0.477-1.496,0.747
	c-1.003,0.507-1.994,1.059-2.937,1.564c-0.933,0.523-1.815,1.007-2.582,1.42C854.548,430.632,853.458,431.145,853.458,431.145z"/>
<path d="M838.827,450.653c0,0-0.659,2.968-1.871,7.34c-0.59,2.192-1.333,4.73-2.143,7.444c-0.415,1.354-0.817,2.762-1.274,4.176
	c-0.445,1.418-0.897,2.859-1.349,4.299c-0.945,2.867-1.889,5.734-2.775,8.422c-0.914,2.678-1.768,5.177-2.499,7.319
	c-0.361,1.072-0.713,2.051-1.026,2.918c-0.302,0.869-0.512,1.633-0.72,2.263c-0.413,1.265-0.65,1.987-0.65,1.987
	s0.098-0.751,0.27-2.065c0.104-0.655,0.185-1.473,0.379-2.377c0.192-0.903,0.409-1.923,0.669-3.031
	c0.258-1.107,0.513-2.318,0.859-3.572c0.335-1.257,0.682-2.585,1.076-3.948c0.396-1.362,0.76-2.786,1.219-4.201
	c0.442-1.422,0.891-2.866,1.34-4.31c0.475-1.436,0.949-2.872,1.416-4.285c0.465-1.414,0.972-2.789,1.436-4.129
	c0.942-2.674,1.884-5.149,2.713-7.263C837.55,453.41,838.827,450.653,838.827,450.653z"/>
<path d="M820.944,494.546c0.618,0.976,1.235,1.962,1.781,2.982c0.557,1.015,1.129,2.026,1.641,3.066
	c0.521,1.036,1.073,2.061,1.519,3.134c0.463,1.065,0.952,2.121,1.396,3.197l1.211,3.28c0.204,0.547,0.413,1.092,0.558,1.66
	l0.476,1.69l0.476,1.692c0.182,0.558,0.257,1.146,0.371,1.723l0.615,3.486l0.038,0.213l-0.109,0.263
	c-0.593,1.429-1.145,2.92-1.666,4.401c-0.528,1.483-1.048,2.971-1.517,4.474c-0.229,0.753-0.485,1.499-0.691,2.258l-0.658,2.268
	l-0.603,2.282c-0.207,0.76-0.356,1.531-0.538,2.296c-0.186,0.765-0.356,1.532-0.494,2.305c-0.139,0.772-0.323,1.541-0.427,2.318
	l-0.345,2.331c-0.104,0.778-0.152,1.56-0.231,2.343c-0.092,0.783-0.103,1.566-0.127,2.351c-0.02,0.785-0.077,1.577,0.004,2.358
	c0.067,0.781,0.057,1.581,0.188,2.357l0.385,2.35l-0.712-2.288c-0.216-0.773-0.292-1.572-0.445-2.362
	c-0.167-0.792-0.196-1.593-0.26-2.396c-0.067-0.803-0.133-1.609-0.093-2.411c0.019-0.803,0.007-1.611,0.051-2.414l0.195-2.404
	c0.062-0.803,0.205-1.592,0.304-2.391c0.101-0.798,0.22-1.593,0.381-2.379c0.158-0.786,0.286-1.581,0.47-2.361l0.537-2.346
	l0.613-2.325c0.201-0.777,0.453-1.537,0.678-2.306c0.933-3.072,1.995-6.077,3.264-9.057l-0.072,0.476
	c-0.18-1.114-0.367-2.227-0.528-3.345c-0.091-0.558-0.141-1.122-0.301-1.67l-0.408-1.656c-0.29-1.1-0.501-2.222-0.868-3.306
	l-1.009-3.281l-1.146-3.245c-0.365-1.091-0.827-2.143-1.221-3.226c-0.397-1.083-0.854-2.139-1.299-3.204
	C821.876,496.662,821.419,495.604,820.944,494.546z"/>
<path d="M829.398,556.646c0.784-1.475,1.689-2.892,2.695-4.237c0.5-0.675,1.015-1.342,1.566-1.98
	c0.552-0.638,1.114-1.269,1.717-1.867c0.572-0.628,1.241-1.16,1.87-1.737c0.678-0.52,1.327-1.085,2.061-1.545l1.1-0.692
	c0.377-0.216,0.78-0.393,1.17-0.59c0.765-0.429,1.64-0.645,2.473-0.95c0.435-0.103,0.882-0.172,1.325-0.249l0.667-0.111l0.682-0.002
	c0.471,0.005,0.875-0.01,1.401,0.019c0.436,0.064,0.866,0.14,1.285,0.224c0.843,0.166,1.677,0.37,2.501,0.616
	c0.823,0.249,1.636,0.542,2.44,0.864l1.191,0.536l1.162,0.621c0.38,0.226,0.745,0.485,1.114,0.731
	c0.359,0.267,0.697,0.573,1.044,0.858c0.33,0.311,0.63,0.668,0.941,1.002c0.282,0.367,0.526,0.773,0.783,1.16
	c0.201,0.426,0.377,0.87,0.548,1.308l0.243,1.397l0.021,0.123l-0.044,0.15c-0.305,1.03-0.537,2.138-0.739,3.224
	c-0.2,1.092-0.364,2.196-0.431,3.305c-0.04,0.553-0.075,1.111-0.069,1.665c-0.01,0.558,0.031,1.11,0.071,1.667
	c0.011,0.28,0.071,0.551,0.104,0.829c0.031,0.279,0.083,0.553,0.157,0.822c0.071,0.269,0.103,0.556,0.208,0.817l0.281,0.802
	l-0.42-0.745c-0.153-0.246-0.234-0.522-0.355-0.784c-0.118-0.265-0.211-0.537-0.285-0.816c-0.076-0.277-0.179-0.552-0.232-0.836
	c-0.132-0.563-0.23-1.135-0.294-1.709c-0.077-0.574-0.11-1.152-0.138-1.73c-0.041-1.157,0.02-2.312,0.12-3.464
	c0.113-1.156,0.283-2.281,0.537-3.446l-0.023,0.272l-0.258-1.047l-0.466-0.97c-0.223-0.291-0.417-0.597-0.651-0.88
	c-0.271-0.259-0.517-0.536-0.8-0.783c-0.307-0.228-0.596-0.472-0.912-0.688l-0.99-0.608l-1.046-0.54l-1.091-0.473
	c-0.744-0.286-1.5-0.547-2.273-0.769c-0.775-0.21-1.55-0.435-2.338-0.594c-0.395-0.085-0.784-0.159-1.17-0.221l-1.093-0.017
	l-0.565-0.012l-0.564,0.091l-1.132,0.175c-0.734,0.246-1.502,0.386-2.209,0.751c-0.358,0.164-0.727,0.305-1.078,0.488l-1.041,0.589
	c-0.705,0.376-1.352,0.868-2.025,1.313c-0.635,0.504-1.296,0.978-1.907,1.522c-0.632,0.518-1.233,1.076-1.827,1.645
	c-0.586,0.575-1.182,1.148-1.744,1.752C831.534,554.092,830.433,555.337,829.398,556.646z"/>
<path d="M835.9,484.467c2.003,0.931,3.945,1.988,5.865,3.082c0.962,0.545,1.915,1.105,2.862,1.677
	c0.951,0.566,1.879,1.168,2.806,1.774c1.855,1.209,3.678,2.471,5.449,3.808c0.883,0.672,1.769,1.34,2.631,2.041
	c0.875,0.685,1.709,1.421,2.556,2.142c0.829,0.742,1.664,1.479,2.466,2.254c0.816,0.759,1.599,1.556,2.372,2.363
	c0.761,0.819,1.515,1.645,2.232,2.507c0.727,0.852,1.419,1.738,2.086,2.643l0.98,1.375l0.911,1.428
	c0.569,0.977,1.143,1.954,1.615,2.991c0.253,0.509,0.494,1.023,0.693,1.559c0.202,0.534,0.448,1.049,0.602,1.602
	c0.165,0.549,0.361,1.087,0.497,1.644l0.366,1.685l-0.072-0.223c0.279,0.651,0.495,1.252,0.702,1.883
	c0.207,0.625,0.389,1.255,0.549,1.89c0.184,0.629,0.29,1.277,0.436,1.914c0.129,0.641,0.213,1.291,0.312,1.937
	c0.08,0.649,0.119,1.303,0.179,1.953c0.052,0.651,0.032,1.308,0.05,1.96c0.033,0.653-0.052,1.306-0.082,1.958l-0.07,0.977
	l-0.157,0.968c-0.122,0.642-0.169,1.295-0.365,1.922l-0.501,1.889c-0.215,0.615-0.465,1.218-0.702,1.822
	c-0.213,0.614-0.525,1.185-0.835,1.755c-0.319,0.564-0.579,1.158-0.944,1.691l-1.105,1.586c-0.341,0.546-0.788,1.012-1.224,1.483
	l-1.297,1.411l1.128-1.546c0.37-0.516,0.771-1.007,1.063-1.573l0.949-1.64c0.311-0.547,0.515-1.151,0.777-1.72
	c0.254-0.574,0.508-1.147,0.662-1.758l0.543-1.793l0.368-1.835c0.153-0.604,0.157-1.236,0.236-1.851l0.094-0.927l0.02-0.933
	c0.001-0.622,0.057-1.241-0.003-1.863c-0.046-0.62-0.051-1.242-0.129-1.858c-0.086-0.616-0.148-1.234-0.251-1.846
	c-0.127-0.609-0.219-1.223-0.357-1.828c-0.156-0.601-0.271-1.212-0.462-1.802c-0.167-0.597-0.355-1.187-0.565-1.768
	c-0.204-0.575-0.439-1.168-0.675-1.683l-0.037-0.08l-0.035-0.143l-0.374-1.537c-0.129-0.511-0.318-1.009-0.473-1.514
	c-0.144-0.509-0.382-0.99-0.573-1.485c-0.188-0.497-0.419-0.977-0.661-1.453c-0.449-0.967-1.003-1.888-1.548-2.809l-0.871-1.356
	l-0.927-1.324c-0.631-0.873-1.29-1.731-1.986-2.561c-0.685-0.839-1.409-1.646-2.141-2.448c-0.75-0.785-1.477-1.594-2.259-2.352
	c-0.763-0.777-1.561-1.52-2.354-2.269c-1.614-1.469-3.259-2.909-4.949-4.3c-1.696-1.384-3.429-2.727-5.186-4.043
	c-1.767-1.301-3.544-2.595-5.359-3.839C839.614,486.843,837.772,485.636,835.9,484.467z"/>
<path d="M862.561,469.185c1.386,2.238,2.672,4.536,3.932,6.847c1.256,2.314,2.503,4.636,3.662,7.002
	c1.177,2.358,2.303,4.742,3.39,7.145c1.046,2.421,2.139,4.825,3.078,7.294c0.481,1.23,0.984,2.451,1.414,3.702l1.336,3.735
	l1.18,3.794c0.418,1.256,0.702,2.557,1.047,3.838l0.498,1.928c0.157,0.645,0.265,1.304,0.4,1.956l0.381,1.961
	c0.131,0.653,0.252,1.308,0.308,1.977c0.138,1.332,0.195,2.657,0.292,3.994l-0.081,4.045v-0.069c0,0.925,0.113,1.798,0.058,2.688
	c-0.048,0.886-0.058,1.769-0.146,2.649c-0.17,1.762-0.393,3.512-0.688,5.255c-0.153,0.87-0.323,1.735-0.5,2.6
	c-0.174,0.866-0.412,1.717-0.619,2.575c-0.199,0.861-0.467,1.702-0.722,2.548c-0.253,0.846-0.503,1.692-0.821,2.517
	c-0.312,0.827-0.595,1.662-0.933,2.477l-1.063,2.425c-0.334,0.816-0.79,1.578-1.185,2.365c-0.413,0.779-0.81,1.564-1.302,2.298
	l-1.404,2.235c-0.51,0.716-1.048,1.413-1.569,2.119l-0.787,1.054l-0.883,0.977l-1.771,1.937l1.588-2.085l0.795-1.035l0.71-1.097
	c0.469-0.733,0.953-1.454,1.407-2.192l1.234-2.292c0.434-0.75,0.773-1.55,1.127-2.341c0.34-0.797,0.758-1.556,1.044-2.375
	l0.926-2.423c0.292-0.813,0.529-1.647,0.798-2.467c0.283-0.816,0.501-1.653,0.719-2.489c0.22-0.835,0.458-1.665,0.623-2.514
	c0.173-0.846,0.385-1.684,0.525-2.536l0.438-2.552c0.251-1.708,0.465-3.421,0.595-5.14c0.068-0.859-0.069-1.718-0.04-2.577
	c0.031-0.854-0.153-1.727-0.153-2.549v-0.069l0.117-3.84c-0.103-1.281-0.197-2.563-0.338-3.844
	c-0.057-0.642-0.132-1.279-0.264-1.914l-0.342-1.91c-0.127-0.636-0.214-1.277-0.364-1.909l-0.469-1.893
	c-0.33-1.259-0.594-2.533-0.999-3.775l-1.119-3.749l-1.242-3.717c-0.398-1.245-0.872-2.465-1.323-3.693
	c-0.46-1.225-0.889-2.461-1.381-3.675l-1.441-3.656c-1.011-2.418-2-4.847-3.061-7.247l-1.591-3.601
	c-0.522-1.205-1.081-2.393-1.625-3.589l-1.68-3.566L862.561,469.185z"/>
<path d="M487.357,523.483c0,0,1.005,0.302,2.694,1.03c1.671,0.755,4.067,1.869,6.727,3.598c1.329,0.863,2.737,1.857,4.141,3.024
	c1.393,1.176,2.843,2.461,4.157,3.976c1.342,1.485,2.623,3.137,3.702,4.961c1.133,1.794,1.979,3.796,2.719,5.824
	c0.279,1.045,0.645,2.068,0.804,3.137l0.297,1.584c0.052,0.533,0.103,1.064,0.154,1.594c0.219,2.119,0.059,4.214-0.166,6.21
	c-0.133,0.996-0.347,1.962-0.531,2.909c-0.209,0.941-0.517,1.834-0.761,2.716c-0.226,0.889-0.606,1.697-0.9,2.502
	c-0.306,0.802-0.616,1.568-0.985,2.273c-0.348,0.711-0.682,1.393-0.999,2.042c-0.337,0.637-0.711,1.212-1.033,1.767
	c-0.65,1.106-1.225,2.061-1.769,2.803c-1.049,1.508-1.668,2.349-1.668,2.349s0.476-0.938,1.342-2.544
	c0.46-0.787,0.929-1.792,1.452-2.946c0.258-0.578,0.565-1.177,0.828-1.835c0.259-0.658,0.531-1.35,0.815-2.072
	c0.307-0.712,0.551-1.48,0.788-2.278c0.227-0.8,0.565-1.596,0.73-2.464c0.187-0.86,0.437-1.731,0.586-2.639
	c0.113-0.914,0.311-1.835,0.398-2.783c0.164-1.898,0.203-3.865-0.004-5.84c-0.053-0.494-0.105-0.989-0.158-1.486l-0.294-1.473
	c-0.154-0.994-0.515-1.942-0.777-2.913c-0.672-1.896-1.435-3.777-2.486-5.476c-0.235-0.44-0.5-0.859-0.782-1.267
	c-0.272-0.414-0.543-0.826-0.812-1.235c-0.596-0.779-1.145-1.582-1.784-2.296c-2.446-2.95-5.189-5.32-7.644-7.209
	c-2.475-1.868-4.671-3.274-6.257-4.173C488.299,523.944,487.357,523.483,487.357,523.483z"/>
<path fill="none" stroke="#000000" stroke-width="1.2529" stroke-miterlimit="10" d="M400.361,564.393
	c0,0-3.341,15.035,5.429,21.091c0,0,4.803,4.803,6.891,3.759c0,0,3.55-11.903,1.044-16.914
	C413.725,572.328,405.164,562.723,400.361,564.393z"/>
<path fill="none" stroke="#000000" stroke-width="1.3116" stroke-miterlimit="10" d="M470.283,553.804
	c-7.651-6.339-23.39,3.279-23.39,3.279c-3.06,1.749-0.874,6.777-0.874,6.777c1.749,5.684,17.707,9.618,17.707,9.618
	c8.963,3.279,12.023-1.312,12.023-1.312C481.213,559.925,470.283,553.804,470.283,553.804z"/>
<path fill="none" stroke="#000000" stroke-width="1.9508" stroke-miterlimit="10" d="M808.914,604.441
	c0,0,38.366,27.636,57.549,0.325c0,0,19.508-36.415,21.784-58.524c0,0-1.951-46.819-1.951-55.923c0,0-4.552-31.538-2.601-36.415
	c0,0-0.325-29.587-15.606-39.991c0,0-13.49,0.512-14.631-2.601c-3.576-9.754-2.926-64.376-2.926-64.376s2.601,26.011,0.65-2.601
	s-18.858-66.327-18.858-66.327c-9.104-26.011-64.377-74.781-64.377-74.781c-25.36-22.759-106.644-59.174-106.644-59.174
	c-22.109-4.552-47.47-45.519-47.47-45.519c-17.557-16.907-67.628-16.257-67.628-16.257c-45.519-4.552-52.672-27.311-52.672-27.311
	c-19.508-18.858-61.125-5.202-61.125-5.202c-40.317,5.202-67.628,40.317-67.628,40.317c-30.563,14.956-71.529,61.125-71.529,61.125
	c-39.016,37.065-43.568,33.164-43.568,33.164c-7.153-9.104-39.016,7.153-39.016,7.153c-21.459,11.705-14.956,48.12-14.956,48.12
	c-1.301,19.508,22.759,44.218,22.759,44.218c-10.404,14.956-21.459,72.83-21.459,72.83c-8.453,48.12,8.453,118.999,8.453,118.999
	c19.508,63.726,79.597,174.942,79.597,174.942s-11.156-38.549-13.595-44.239s0,0,0,0s-16.094-71.773-16.094-85.185
	c0,0-10.973-73.155-11.217-77.788c0,0-6.34-56.817-1.463-67.79c4.877-10.973,0,0,0,0"/>
<path fill="none" stroke="#000000" stroke-width="1.9508" stroke-miterlimit="10" d="M853.458,411.311
	c0,0-38.691,39.666-43.243,80.633c0,0-0.65,3.251-6.503,14.956c0,0-11.867,5.04-18.451-15.2c0,0-5.609-74.862-29.994-110.952
	c0,0-34.139-35.114-43.405-61.938c0,0-8.779-42.43-30.725-58.524c0,0-39.992-60.475-98.516-57.061c0,0-7.315,11.217-20.483,29.75
	c0,0-10.242,39.991-58.036,30.237c0,0-54.622-14.143-94.126-5.852c0,0-29.262-20.483-63.401-9.754c0,0-26.824,24.873-46.819,31.701
	c0,0-25.36,3.576-35.114,13.981c-20.732,22.114-18.858,56.248-22.434,90.062s11.705,121.925,11.705,121.925
	s9.479,75.658,18.858,105.669c0,0,29.912,79.333,37.39,102.742c0,0,32.188,89.412,49.42,112.171c0,0,42.267,40.967,85.51,72.83
	c0,0,20.483,10.729,101.442-12.68c0,0,63.401-7.316,121.438-50.721c0,0,68.766-42.267,97.378-102.417
	c0,0,31.538-78.682,37.716-122.576"/>
<path d="M292.195,482.678c0,0,0.123-0.361,0.39-1.025c0.27-0.662,0.662-1.639,1.255-2.837c1.169-2.403,2.976-5.791,5.616-9.566
	c1.338-1.87,2.82-3.885,4.573-5.864c0.841-1.02,1.797-1.986,2.731-3.015c0.989-0.974,1.968-2.006,3.055-2.958
	c0.536-0.484,1.077-0.972,1.622-1.463c0.566-0.468,1.135-0.939,1.708-1.413c1.127-0.974,2.372-1.827,3.587-2.738
	c2.503-1.718,5.11-3.384,7.859-4.796l2.062-1.054l2.111-0.94c1.391-0.659,2.838-1.165,4.256-1.709
	c2.849-1.057,5.74-1.836,8.553-2.488c2.821-0.618,5.577-1.077,8.207-1.332c0.657-0.071,1.302-0.16,1.941-0.212
	c0.64-0.035,1.271-0.069,1.891-0.103c1.241-0.042,2.435-0.162,3.586-0.132c2.301,0.024,4.406,0.002,6.265,0.196
	c1.859,0.149,3.48,0.226,4.802,0.437c2.65,0.353,4.155,0.581,4.155,0.581s-1.528-0.057-4.185-0.203
	c-1.326-0.115-2.945-0.075-4.794-0.089c-1.85-0.054-3.933,0.12-6.201,0.198c-1.135,0.029-2.308,0.21-3.525,0.314
	c-0.608,0.058-1.226,0.118-1.854,0.178c-0.626,0.075-1.257,0.187-1.899,0.28c-2.572,0.347-5.249,0.91-7.994,1.559
	c-1.358,0.386-2.763,0.69-4.137,1.157c-0.689,0.228-1.381,0.458-2.078,0.689c-0.702,0.213-1.397,0.457-2.082,0.738
	c-1.377,0.541-2.783,1.042-4.131,1.695l-2.047,0.929l-1.999,1.038c-2.684,1.352-5.232,2.956-7.684,4.61
	c-2.401,1.727-4.755,3.453-6.852,5.347c-1.087,0.902-2.054,1.902-3.065,2.812c-0.95,0.973-1.924,1.884-2.785,2.854
	c-1.782,1.886-3.34,3.786-4.757,5.558c-2.776,3.589-4.869,6.766-6.179,9.08C292.835,481.291,292.195,482.678,292.195,482.678z"/>
<path d="M311.947,529.254c0,0,0.279-0.061,0.803-0.174c0.521-0.122,1.285-0.3,2.257-0.528c0.974-0.212,2.143-0.534,3.489-0.87
	c1.335-0.384,2.849-0.775,4.485-1.259c1.637-0.479,3.406-1.005,5.262-1.61c1.868-0.563,3.796-1.284,5.81-1.966
	c2.01-0.692,4.036-1.546,6.126-2.319c2.042-0.893,4.163-1.697,6.198-2.688c2.04-0.976,4.128-1.863,6.067-2.959
	c0.985-0.518,1.963-1.033,2.929-1.541c0.975-0.494,1.871-1.094,2.79-1.623c0.912-0.542,1.809-1.075,2.687-1.596
	c0.883-0.515,1.681-1.116,2.495-1.649c1.592-1.114,3.184-2.061,4.488-3.151c1.336-1.049,2.583-1.99,3.692-2.825
	c1.049-0.901,1.933-1.724,2.68-2.385c1.489-1.326,2.365-2.07,2.365-2.07s-0.747,0.86-2.097,2.34
	c-0.682,0.733-1.492,1.646-2.461,2.655c-1.025,0.946-2.186,2.016-3.477,3.159c-1.246,1.202-2.781,2.267-4.351,3.468
	c-0.798,0.582-1.583,1.235-2.452,1.802c-0.873,0.561-1.765,1.134-2.672,1.717c-0.917,0.566-1.815,1.205-2.789,1.737
	c-0.971,0.537-1.955,1.08-2.946,1.627c-1.965,1.133-4.071,2.059-6.138,3.067c-2.078,0.985-4.238,1.78-6.319,2.665
	c-2.123,0.777-4.215,1.539-6.265,2.191c-2.053,0.645-4.04,1.259-5.953,1.736c-1.898,0.531-3.717,0.935-5.397,1.299
	c-1.673,0.389-3.233,0.631-4.604,0.883c-1.381,0.208-2.577,0.416-3.573,0.536c-0.99,0.144-1.776,0.209-2.309,0.26
	C312.232,529.229,311.947,529.254,311.947,529.254z"/>
<path fill="none" stroke="#000000" stroke-width="4" stroke-miterlimit="10" d="M398.27,670.931
	c39.553,23.661,52.553,22.327,52.553,22.327c49.745,3.414,121.069-42.323,121.069-42.323
	C491.909,680.685,398.27,670.931,398.27,670.931z"/>
<path fill="#020202" d="M782.253,499.748c-33.814,111.846-124.851,208.086-124.851,208.086
	c-14.306,15.606-11.705,45.519-11.705,45.519c-14.306,55.273-40.317,70.229-40.317,70.229
	c-61.125,26.661-68.278-11.705-68.278-11.705c-30.563-46.819-86.486-21.459-86.486-21.459
	c-29.262,10.404-35.114,62.426-35.114,62.426c-24.06-5.852-48.12-66.327-48.12-66.327c-12.355-36.415-52.021-58.524-52.021-58.524
	c2.439,3.902,24.873,58.524,24.873,58.524c1.219,5.121,21.947,39.991,21.947,39.991c7.559,5.365,32.432,30.481,32.432,30.481
	c8.779,5.609,38.528,31.944,38.528,31.944c18.776,17.313,27.799,11.705,27.799,11.705c23.653,0.488,68.034-10.486,68.034-10.486
	c20.483-4.145,36.09-9.022,36.09-9.022c12.436-2.926,41.455-13.656,41.455-13.656c16.582-5.609,38.528-18.533,38.528-18.533
	c13.656-5.852,38.041-26.092,38.041-26.092c18.045-12.193,25.36-21.459,25.36-21.459c14.631-8.535,35.602-37.309,35.602-37.309
	c13.899-14.875,23.654-39.504,23.654-39.504c9.998-19.752,10.973-29.994,10.973-29.994c8.779-16.826,22.922-82.421,22.922-82.421
	c11.461-42.186,11.217-100.466,11.217-100.466C813.06,504.625,782.253,499.748,782.253,499.748z"/>
<path d="M782.253,499.748l-2.762,8.718c-0.904,2.911-1.985,5.764-2.969,8.65c-0.975,2.89-2.074,5.733-3.165,8.58
	c-1.08,2.851-2.161,5.702-3.351,8.51c-1.181,2.811-2.278,5.658-3.528,8.439l-3.696,8.367l-3.883,8.282
	c-1.3,2.758-2.693,5.471-4.035,8.209c-1.329,2.745-2.774,5.431-4.176,8.139l-2.118,4.054l-2.193,4.014
	c-2.894,5.369-5.933,10.658-9.004,15.927c-1.563,2.618-3.094,5.257-4.684,7.859l-4.8,7.789l-4.913,7.718l-5.024,7.647l-5.125,7.579
	l-5.224,7.512l-5.323,7.443l-5.421,7.371c-3.655,4.884-7.339,9.747-11.12,14.535c-3.763,4.802-7.594,9.551-11.501,14.237
	c-3.902,4.691-7.869,9.327-11.926,13.888l-3.066,3.401l-1.536,1.67c-0.483,0.583-1.02,1.148-1.459,1.745
	c-1.826,2.347-3.356,4.979-4.6,7.714c-2.482,5.498-3.905,11.445-4.727,17.435c-0.796,5.995-1.034,12.108-0.637,18.119l0.008,0.114
	l-0.024,0.086l-2.814,9.955l-1.646,4.906c-0.567,1.629-1.057,3.285-1.687,4.892l-1.888,4.82l-0.945,2.41l-1.06,2.363l-2.132,4.72
	c-0.755,1.553-1.572,3.076-2.356,4.615l-1.189,2.302l-1.306,2.239c-0.894,1.479-1.691,3.017-2.665,4.447
	c-0.955,1.442-1.885,2.901-2.86,4.328l-3.077,4.182c-1.106,1.333-2.174,2.697-3.311,4.005c-1.18,1.27-2.294,2.601-3.557,3.797
	c-1.21,1.245-2.505,2.407-3.816,3.553c-1.359,1.109-2.677,2.201-4.233,3.153l-0.031,0.019l-0.038,0.016l-4.598,1.914
	c-1.525,0.656-3.105,1.179-4.656,1.775c-1.547,0.607-3.139,1.092-4.719,1.61c-1.572,0.542-3.18,0.976-4.786,1.413
	c-1.596,0.475-3.228,0.818-4.855,1.181c-1.618,0.404-3.279,0.611-4.92,0.908c-0.819,0.162-1.658,0.207-2.486,0.314
	c-0.832,0.081-1.659,0.211-2.495,0.25c-1.672,0.08-3.343,0.204-5.023,0.133c-1.678,0.018-3.354-0.17-5.026-0.333l-2.496-0.392
	c-0.826-0.168-1.645-0.379-2.467-0.567c-1.63-0.441-3.237-0.982-4.793-1.659c-0.787-0.314-1.524-0.744-2.288-1.111
	c-0.746-0.403-1.46-0.868-2.188-1.305c-1.391-0.974-2.757-1.999-3.96-3.206c-1.237-1.169-2.33-2.483-3.32-3.865
	c-0.996-1.379-1.846-2.86-2.567-4.4c-0.721-1.554-1.313-3.114-1.703-4.86l0.117,0.291l-1.732-2.458
	c-0.586-0.813-1.126-1.66-1.784-2.416c-1.271-1.547-2.492-3.138-3.912-4.551c-0.699-0.714-1.344-1.485-2.088-2.153l-2.212-2.024
	c-0.714-0.703-1.541-1.27-2.313-1.903c-0.793-0.606-1.544-1.271-2.392-1.801l-2.483-1.675c-0.849-0.523-1.728-1-2.59-1.503
	c-0.853-0.522-1.755-0.95-2.657-1.378c-0.905-0.42-1.781-0.906-2.722-1.247l-2.782-1.111l-2.849-0.93
	c-0.943-0.332-1.929-0.523-2.891-0.791c-0.485-0.121-0.966-0.259-1.453-0.367l-1.472-0.289c-1.955-0.424-3.944-0.672-5.93-0.913
	l-2.992-0.261l-3.003-0.116c-2.003-0.024-4.009-0.009-6.011,0.114c-2.002,0.11-4.003,0.288-5.992,0.551
	c-1.992,0.243-3.975,0.571-5.945,0.956c-1.973,0.374-3.928,0.839-5.875,1.332c-1.938,0.525-3.873,1.07-5.775,1.711
	c-1.895,0.636-3.808,1.322-5.604,2.107l-0.067,0.027l-2.105,0.863c-0.714,0.26-1.357,0.677-2.04,1.007
	c-0.335,0.178-0.677,0.343-1.006,0.532l-0.962,0.612c-0.636,0.416-1.301,0.789-1.892,1.272c-0.603,0.465-1.226,0.905-1.813,1.39
	l-1.718,1.513c-1.092,1.067-2.194,2.13-3.176,3.309c-1.033,1.131-1.944,2.372-2.874,3.592l-1.318,1.892
	c-0.435,0.634-0.826,1.298-1.242,1.946c-0.421,0.644-0.801,1.315-1.18,1.986c-0.378,0.672-0.778,1.33-1.122,2.022l-1.066,2.054
	l-0.996,2.091c-2.593,5.61-4.642,11.477-6.284,17.453c-0.824,2.988-1.547,6.005-2.174,9.041c-0.622,3.031-1.171,6.104-1.548,9.144
	l-0.125,1.009l-0.969-0.244c-3.492-0.878-6.604-2.676-9.395-4.755c-2.792-2.1-5.27-4.54-7.596-7.088
	c-2.328-2.551-4.477-5.247-6.494-8.029c-2.031-2.773-3.947-5.624-5.764-8.532c-3.658-5.804-6.969-11.808-10.075-17.909
	c-3.1-6.105-5.993-12.309-8.656-18.622c-0.329-0.8-0.666-1.558-0.973-2.412l-0.882-2.402c-0.286-0.808-0.641-1.553-0.958-2.333
	c-0.323-0.772-0.643-1.546-1.02-2.303c-1.386-3.076-3.059-6.017-4.805-8.906c-1.759-2.885-3.725-5.641-5.767-8.336
	c-2.05-2.691-4.261-5.259-6.541-7.761c-4.578-4.992-9.577-9.599-14.84-13.873c-2.635-2.133-5.344-4.177-8.117-6.126
	c-2.767-1.944-5.623-3.821-8.516-5.492l1.281-1.347l1.8,3.684l1.608,3.647c1.08,2.428,2.134,4.863,3.166,7.305l6.199,14.649
	l12.177,29.382l0.046,0.143l0.425,1.205l0.566,1.27c0.368,0.847,0.819,1.69,1.224,2.535c0.855,1.684,1.733,3.362,2.637,5.03
	c1.799,3.339,3.651,6.657,5.526,9.963c3.746,6.612,7.575,13.187,11.442,19.73l-0.265-0.287l2.214,1.77
	c0.736,0.592,1.489,1.171,2.168,1.804l4.173,3.726c2.717,2.54,5.446,5.07,8.109,7.659c2.689,2.566,5.33,5.176,7.985,7.775
	l7.894,7.866l-0.159-0.128l4.214,3.012l4.025,3.175c2.691,2.108,5.277,4.323,7.92,6.48l7.793,6.614l7.731,6.681l7.681,6.731
	c1.286,1.105,2.54,2.295,3.871,3.281l1.974,1.542l2.068,1.426c0.677,0.496,1.402,0.909,2.119,1.336
	c0.716,0.428,1.426,0.87,2.179,1.218c1.473,0.768,2.995,1.434,4.558,1.932l1.174,0.366l1.192,0.261
	c0.397,0.097,0.796,0.168,1.197,0.202c0.4,0.036,0.802,0.121,1.2,0.119c0.8,0.037,1.596,0.019,2.369-0.095
	c0.385-0.062,0.768-0.127,1.129-0.24c0.352-0.089,0.747-0.256,0.965-0.366l0.257-0.13l0.232-0.004
	c2.19-0.038,4.377,0.025,6.573-0.14l3.29-0.184l3.289-0.291c2.194-0.165,4.38-0.475,6.57-0.713c2.188-0.27,4.371-0.592,6.556-0.892
	c2.179-0.348,4.363-0.666,6.539-1.039c2.175-0.378,4.354-0.732,6.523-1.146c4.347-0.781,8.677-1.659,13.003-2.551
	c4.323-0.912,8.638-1.861,12.937-2.871c1.088-0.247,2.119-0.52,3.242-0.762l3.24-0.715l6.481-1.431
	c2.162-0.472,4.325-0.941,6.453-1.509l6.412-1.626c2.143-0.52,4.265-1.129,6.39-1.724c2.128-0.588,4.252-1.186,6.354-1.83
	l0.011-0.003l0.048-0.013l5.183-1.38l5.155-1.563c1.722-0.505,3.423-1.099,5.136-1.645c1.71-0.555,3.421-1.111,5.122-1.699
	c6.82-2.294,13.608-4.709,20.368-7.175l5.06-1.892c1.708-0.597,3.326-1.341,4.971-2.043c1.638-0.716,3.291-1.386,4.906-2.181
	l4.869-2.303l4.812-2.429c1.612-0.795,3.183-1.67,4.776-2.501c3.174-1.683,6.322-3.434,9.427-5.223l0.031-0.018l0.057-0.027
	l2.574-1.205l2.522-1.345c0.839-0.452,1.653-0.959,2.482-1.435c0.83-0.473,1.638-0.99,2.449-1.499
	c1.633-1.001,3.221-2.08,4.823-3.136c1.581-1.09,3.17-2.167,4.728-3.292c3.131-2.227,6.22-4.518,9.269-6.861
	c3.048-2.342,6.077-4.723,9.042-7.157l0.022-0.018l0.034-0.024l3.393-2.386l1.697-1.193c0.563-0.401,1.14-0.784,1.681-1.214
	l3.292-2.521c1.11-0.825,2.179-1.7,3.234-2.592c1.053-0.893,2.144-1.744,3.166-2.671c1.023-0.926,2.057-1.841,3.071-2.776
	c0.979-0.969,1.995-1.906,2.944-2.9l1.42-1.494c0.444-0.511,0.927-1.023,1.337-1.534l0.07-0.087l0.119-0.077l2.67-1.729l2.551-1.931
	c0.85-0.645,1.638-1.377,2.46-2.061c0.826-0.68,1.604-1.421,2.389-2.153c0.783-0.734,1.58-1.452,2.331-2.222l2.281-2.278l2.221-2.34
	c0.749-0.772,1.458-1.583,2.185-2.376c1.458-1.583,2.859-3.22,4.273-4.844c1.395-1.642,2.783-3.289,4.143-4.961
	c2.72-3.339,5.392-6.732,7.949-10.187l0.017-0.023l0.03-0.034l1.9-2.147c0.65-0.701,1.228-1.466,1.829-2.21
	c0.592-0.752,1.213-1.481,1.764-2.266l1.698-2.319l1.619-2.378c0.547-0.787,1.063-1.597,1.572-2.41
	c0.507-0.815,1.04-1.613,1.525-2.442l1.473-2.475c0.949-1.67,1.907-3.335,2.8-5.036c0.455-0.846,0.909-1.693,1.34-2.551
	c0.434-0.857,0.884-1.706,1.3-2.573c1.699-3.444,3.318-6.944,4.77-10.484l0.008-0.02l0.012-0.025l1.734-3.599l0.867-1.799
	c0.284-0.602,0.59-1.195,0.855-1.805l1.574-3.669c0.533-1.22,1.055-2.444,1.503-3.697c0.464-1.246,0.948-2.486,1.397-3.737
	l1.232-3.79c0.195-0.634,0.356-1.278,0.536-1.916c0.168-0.641,0.367-1.276,0.509-1.922l0.433-1.936
	c0.109-0.641,0.25-1.307,0.319-1.927l0.01-0.088l0.045-0.097l1.433-3.101c0.483-1.031,0.846-2.126,1.275-3.186
	c0.864-2.121,1.553-4.316,2.313-6.481c0.742-2.173,1.393-4.379,2.095-6.567l1.955-6.615c1.257-4.425,2.474-8.862,3.644-13.312
	c1.167-4.451,2.304-8.911,3.408-13.379c2.211-8.935,4.318-17.897,6.331-26.88c0.929-4.526,2.303-8.927,3.199-13.438
	c0.464-2.25,0.989-4.488,1.404-6.75l1.228-6.79c0.721-4.543,1.458-9.086,2.017-13.654c0.629-4.559,1.099-9.138,1.58-13.714
	l0.642-6.874l0.54-6.883c0.324-4.591,0.607-9.185,0.833-13.783c0.214-4.598,0.397-9.198,0.498-13.8
	c0.06-2.301,0.091-4.602,0.107-6.903c0.001-0.567,0.009-1.164-0.237-1.663c-0.086-0.263-0.282-0.485-0.418-0.73
	c-0.176-0.221-0.372-0.428-0.557-0.644c-0.816-0.801-1.799-1.414-2.798-1.972c-2.014-1.106-4.174-1.926-6.347-2.672
	c-2.178-0.74-4.392-1.376-6.62-1.952C791.302,501.462,786.792,500.517,782.253,499.748z M782.253,499.748
	c4.542,0.748,9.057,1.673,13.522,2.8c2.232,0.566,4.45,1.192,6.634,1.923c2.18,0.737,4.348,1.548,6.378,2.651
	c1.008,0.558,2.001,1.169,2.838,1.982c0.191,0.22,0.393,0.431,0.575,0.658c0.144,0.256,0.343,0.477,0.44,0.762
	c0.265,0.552,0.251,1.145,0.255,1.719c-0.005,2.303-0.026,4.605-0.075,6.907c-0.079,4.604-0.241,9.207-0.434,13.807
	c-0.205,4.601-0.467,9.198-0.77,13.794l-0.509,6.889l-0.611,6.881c-0.46,4.582-0.91,9.167-1.518,13.734
	c-0.538,4.575-1.255,9.127-1.956,13.681l-1.199,6.807c-0.405,2.268-0.922,4.518-1.378,6.778c-0.878,4.528-2.234,8.945-3.135,13.446
	c-1.973,8.997-4.039,17.973-6.21,26.924c-1.084,4.476-2.202,8.944-3.349,13.406c-1.151,4.46-2.348,8.909-3.587,13.348l-1.929,6.639
	c-0.693,2.199-1.336,4.413-2.072,6.6c-0.753,2.182-1.436,4.386-2.305,6.533c-0.431,1.074-0.791,2.172-1.282,3.227l-1.457,3.171
	l0.055-0.184c-0.078,0.708-0.215,1.351-0.328,2.026l-0.436,1.976c-0.143,0.659-0.343,1.301-0.512,1.952
	c-0.18,0.648-0.342,1.302-0.538,1.944l-1.235,3.834c-0.45,1.264-0.934,2.515-1.399,3.773c-0.449,1.265-0.971,2.5-1.504,3.729
	l-1.576,3.7c-0.266,0.615-0.572,1.211-0.856,1.818l-0.867,1.813l-1.735,3.625l0.02-0.045c-1.464,3.598-3.076,7.104-4.778,10.578
	c-0.416,0.873-0.867,1.728-1.301,2.592c-0.431,0.865-0.886,1.718-1.342,2.571c-0.894,1.715-1.855,3.394-2.806,5.078l-1.478,2.498
	c-0.486,0.837-1.023,1.643-1.531,2.467c-0.511,0.822-1.029,1.64-1.58,2.437l-1.63,2.406l-1.712,2.351
	c-0.555,0.795-1.184,1.537-1.782,2.301c-0.608,0.756-1.192,1.532-1.851,2.248l-1.927,2.188l0.047-0.056
	c-2.572,3.494-5.237,6.896-7.962,10.26c-1.361,1.682-2.751,3.341-4.148,4.994c-1.417,1.636-2.82,3.285-4.284,4.882
	c-0.729,0.801-1.44,1.617-2.193,2.398l-2.232,2.364l-2.296,2.306c-0.754,0.779-1.56,1.509-2.351,2.253
	c-0.792,0.743-1.577,1.493-2.416,2.189c-0.835,0.699-1.631,1.441-2.499,2.104l-2.608,1.985l-2.763,1.799l0.188-0.164
	c-0.459,0.573-0.929,1.072-1.394,1.609l-1.444,1.528c-0.965,1.016-1.989,1.965-2.981,2.951c-1.024,0.949-2.067,1.877-3.099,2.817
	s-2.129,1.802-3.191,2.707c-1.063,0.903-2.139,1.79-3.256,2.624l-3.313,2.551c-0.545,0.436-1.125,0.822-1.691,1.228l-1.706,1.207
	l-3.412,2.413l0.056-0.042c-2.985,2.463-6.009,4.853-9.065,7.214c-3.055,2.36-6.151,4.669-9.293,6.917
	c-1.564,1.134-3.161,2.224-4.749,3.325c-1.613,1.069-3.209,2.159-4.859,3.177c-0.819,0.516-1.633,1.041-2.476,1.524
	c-0.84,0.487-1.662,1-2.517,1.464l-2.574,1.381l-2.657,1.252l0.088-0.044c-3.134,1.816-6.281,3.578-9.468,5.278
	c-1.599,0.839-3.175,1.722-4.793,2.525l-4.831,2.454l-4.896,2.331c-1.617,0.801-3.303,1.492-4.965,2.222
	c-1.667,0.716-3.324,1.481-5.019,2.077l-5.063,1.898c-6.777,2.479-13.567,4.902-20.405,7.208c-1.704,0.591-3.42,1.15-5.136,1.708
	c-1.72,0.55-3.421,1.145-5.157,1.657l-5.188,1.578l-5.262,1.405l0.058-0.016c-2.128,0.655-4.263,1.257-6.399,1.85
	c-2.135,0.599-4.266,1.213-6.423,1.739l-6.453,1.642c-2.148,0.574-4.308,1.045-6.469,1.519l-6.48,1.436l-3.24,0.718
	c-1.039,0.223-2.149,0.516-3.218,0.759c-4.315,1.017-8.641,1.973-12.977,2.891c-4.339,0.898-8.682,1.783-13.045,2.571
	c-2.177,0.417-4.365,0.774-6.549,1.156c-2.185,0.376-4.38,0.698-6.57,1.049c-2.198,0.304-4.393,0.629-6.596,0.903
	c-2.208,0.242-4.406,0.555-6.624,0.725l-3.322,0.297l-3.336,0.19c-2.22,0.169-4.462,0.109-6.695,0.148l0.488-0.134
	c-0.533,0.289-0.937,0.431-1.405,0.564c-0.453,0.14-0.909,0.22-1.365,0.293c-0.912,0.135-1.821,0.156-2.722,0.115
	c-0.453-0.001-0.892-0.089-1.338-0.13c-0.448-0.039-0.886-0.116-1.318-0.22l-1.301-0.285l-1.263-0.391
	c-1.679-0.533-3.287-1.238-4.831-2.04c-0.793-0.369-1.531-0.825-2.276-1.269c-0.746-0.443-1.501-0.874-2.199-1.384l-2.136-1.471
	l-2.051-1.599c-1.404-1.045-2.622-2.204-3.919-3.315l-7.683-6.721l-7.726-6.665l-7.783-6.594c-2.633-2.144-5.221-4.357-7.89-6.444
	l-3.995-3.146l-4.094-2.923l-0.106-0.076l-0.053-0.053l-7.885-7.843c-2.651-2.591-5.291-5.196-7.974-7.751
	c-2.66-2.582-5.377-5.096-8.084-7.623l-4.135-3.685c-0.68-0.633-1.401-1.183-2.111-1.753l-2.133-1.706l-0.18-0.144l-0.085-0.143
	c-3.882-6.554-7.718-13.128-11.479-19.753c-1.882-3.311-3.742-6.637-5.555-9.994c-0.911-1.676-1.797-3.368-2.666-5.076
	c-0.418-0.869-0.867-1.705-1.259-2.603l-0.596-1.336c-0.181-0.484-0.349-0.992-0.517-1.488l0.046,0.143l-12.189-29.362l-6.18-14.641
	c-1.03-2.441-2.079-4.87-3.151-7.286l-1.596-3.628l-1.678-3.465l-1.406-2.902l2.687,1.555c3.015,1.745,5.865,3.626,8.68,5.606
	c2.808,1.978,5.548,4.049,8.215,6.211c5.326,4.333,10.388,9.004,15.031,14.076c2.313,2.542,4.558,5.153,6.641,7.893
	c2.076,2.744,4.076,5.553,5.868,8.498c1.78,2.949,3.485,5.954,4.902,9.104c0.383,0.771,0.716,1.574,1.05,2.377
	c0.325,0.801,0.699,1.601,0.982,2.402l0.88,2.403c0.267,0.753,0.621,1.557,0.94,2.335c2.636,6.264,5.509,12.441,8.583,18.507
	c3.079,6.063,6.362,12.027,9.977,17.773c1.796,2.88,3.687,5.699,5.686,8.433c1.986,2.744,4.095,5.394,6.366,7.886
	c2.268,2.488,4.675,4.859,7.341,6.867c2.662,1.99,5.589,3.661,8.741,4.455l-1.094,0.765c0.394-3.151,0.948-6.224,1.581-9.304
	c0.637-3.073,1.371-6.126,2.209-9.152c1.668-6.052,3.751-12.003,6.399-17.72l1.018-2.132l1.091-2.098
	c0.352-0.705,0.762-1.381,1.15-2.068c0.389-0.686,0.779-1.372,1.212-2.034c0.427-0.665,0.83-1.345,1.277-1.997l1.359-1.946
	c0.96-1.259,1.901-2.536,2.973-3.709c1.018-1.218,2.165-2.326,3.304-3.434l1.795-1.577c0.615-0.507,1.268-0.969,1.9-1.455
	c0.621-0.503,1.319-0.899,1.989-1.335l1.013-0.642c0.347-0.199,0.708-0.374,1.061-0.561c0.72-0.349,1.4-0.783,2.154-1.06
	l2.226-0.909l-0.067,0.027c1.919-0.836,3.828-1.515,5.774-2.168c1.94-0.652,3.909-1.205,5.882-1.737
	c1.982-0.5,3.972-0.971,5.981-1.351c2.007-0.39,4.026-0.722,6.057-0.969c2.028-0.265,4.068-0.446,6.112-0.556
	c2.044-0.124,4.093-0.138,6.141-0.111l3.072,0.122l3.064,0.27c2.035,0.248,4.073,0.505,6.081,0.941l1.51,0.299
	c0.501,0.112,0.995,0.253,1.493,0.378c0.989,0.276,2,0.475,2.97,0.816l2.929,0.959l2.863,1.145c0.967,0.353,1.87,0.852,2.801,1.286
	c0.928,0.442,1.857,0.884,2.735,1.422c0.888,0.518,1.791,1.011,2.666,1.551l2.555,1.727c0.872,0.548,1.645,1.23,2.461,1.855
	c0.795,0.651,1.644,1.238,2.377,1.959l2.269,2.084c0.762,0.689,1.422,1.479,2.138,2.214c1.453,1.456,2.701,3.085,3.997,4.674
	c0.672,0.777,1.223,1.643,1.819,2.476l1.763,2.517l0.077,0.11l0.04,0.182c0.327,1.484,0.896,3.041,1.568,4.482
	c0.676,1.455,1.476,2.857,2.413,4.16c0.931,1.306,1.958,2.549,3.123,3.654c1.13,1.142,2.418,2.11,3.729,3.036
	c0.688,0.414,1.361,0.856,2.067,1.24c0.725,0.349,1.42,0.76,2.168,1.06c1.476,0.647,3.007,1.166,4.565,1.593
	c0.788,0.181,1.571,0.387,2.364,0.55l2.402,0.384c1.614,0.159,3.231,0.348,4.862,0.333c1.628,0.074,3.258-0.044,4.887-0.117
	c0.815-0.036,1.625-0.162,2.439-0.239c0.811-0.102,1.629-0.143,2.434-0.3c1.611-0.289,3.239-0.485,4.833-0.879
	c1.601-0.353,3.207-0.686,4.783-1.151c1.585-0.427,3.171-0.85,4.727-1.383c1.563-0.508,3.136-0.982,4.67-1.58
	c1.536-0.587,3.1-1.099,4.615-1.746l4.563-1.886l-0.069,0.035c1.384-0.841,2.732-1.937,4.037-3c1.281-1.114,2.55-2.246,3.741-3.466
	c1.24-1.167,2.34-2.477,3.504-3.721c1.122-1.284,2.179-2.626,3.272-3.937l3.048-4.119c0.967-1.408,1.89-2.848,2.838-4.271
	c0.967-1.411,1.759-2.933,2.648-4.393l1.299-2.213l1.184-2.278c0.78-1.523,1.594-3.03,2.346-4.567l2.127-4.676l1.057-2.341
	l0.944-2.39l1.887-4.781c0.629-1.594,1.121-3.239,1.688-4.856l1.649-4.871l2.824-9.893l-0.017,0.199
	c-0.39-6.156-0.131-12.289,0.69-18.376c0.85-6.069,2.307-12.109,4.862-17.732c1.288-2.807,2.843-5.481,4.77-7.941
	c0.469-0.628,0.987-1.169,1.478-1.758l1.563-1.692l3.065-3.383c4.059-4.539,8.032-9.158,11.939-13.831
	c3.909-4.672,7.758-9.396,11.538-14.173c3.798-4.764,7.5-9.604,11.173-14.465l5.449-7.338l5.351-7.41l5.253-7.48l5.155-7.548
	l5.054-7.616l4.944-7.688l4.831-7.76c1.601-2.592,3.142-5.221,4.716-7.83c3.093-5.25,6.153-10.522,9.07-15.873l2.209-4.001
	l2.135-4.042c1.413-2.7,2.87-5.377,4.21-8.114c1.354-2.73,2.759-5.435,4.07-8.186l3.919-8.26l3.732-8.346
	c1.262-2.774,2.372-5.615,3.565-8.419c1.203-2.801,2.296-5.646,3.389-8.491c1.104-2.841,2.216-5.679,3.204-8.563
	c0.997-2.88,2.091-5.727,3.008-8.634L782.253,499.748z"/>
<path fill="#020202" stroke="#000000" stroke-width="1.9508" stroke-miterlimit="10" d="M282.325,645.11
	c0.957,2.418,1.875,4.307,2.737,5.52C285.063,650.63,284.065,648.623,282.325,645.11z"/>
<path fill="#020202" stroke="#000000" stroke-width="1.9508" stroke-miterlimit="10" d="M853.62,411.962
	c-5.283-15.363-2.276-57.061-2.276-57.061c3.902-24.629-25.848-90.225-25.848-90.225c-6.828-14.143-55.354-59.5-55.354-59.5
	c-18.289-15.85-108.839-61.125-108.839-61.125c-19.102-5.527-47.47-45.519-47.47-45.519c-8.535-11.298-64.377-16.744-64.377-16.744
	c-45.112-1.707-55.923-26.824-55.923-26.824c-18.126-17.313-61.125-5.202-61.125-5.202c-33.651,2.845-67.628,40.317-67.628,40.317
	c-11.786,4.145-63.32,52.672-63.32,52.672c-18.045,24.141-51.778,41.617-51.778,41.617c-11.055-11.054-45.763,12.274-45.763,12.274
	c-12.436,9.51-8.535,48.282-8.535,48.282c-1.219,9.754,23.085,38.935,23.085,38.935c-12.762,14.062-23.328,95.915-23.328,95.915
	c-2.682,14.143,5.365,70.473,5.365,70.473c1.463,15.119,19.752,65.108,19.752,65.108c3.404,11.061,50.177,105.755,62.066,129.756
	c-9.666-24.425-23.294-103.664-23.294-103.664c-2.926-17.07-11.461-77.544-11.461-77.544c-8.535-47.307-4.145-93.639-4.145-93.639
	c0.975-53.647,18.533-74.862,18.533-74.862c12.193-11.705,40.967-17.313,40.967-17.313c19.264-8.535,43.649-30.481,43.649-30.481
	c29.262-10.729,63.401,9.754,63.401,9.754c11.217-4.389,48.039-2.195,48.039-2.195c18.776,3.17,65.84,9.266,65.84,9.266
	c22.922-2.195,35.358-25.36,35.358-25.36c9.754-18.776,23.41-35.846,23.41-35.846c12.924-2.682,24.385,1.707,24.385,1.707
	c16.094,2.439,48.77,26.58,48.77,26.58c14.143,10.486,31.701,34.627,31.701,34.627c12.924,12.924,31.457,66.571,31.457,66.571
	c3.902,6.584,32.188,43.162,32.188,43.162c8.047,8.047,17.557,31.944,17.557,31.944c8.291,9.998,13.899,62.67,13.899,62.67
	c0.732,9.754,6.218,30.237,6.218,30.237c2.438,1.341,15.891,3.576,15.891,3.576c4.227-4.877,6.503-18.207,6.503-18.207
	C822.57,437.647,853.62,411.962,853.62,411.962z"/>
<path fill="#020202" stroke="#020202" stroke-width="1.9508" stroke-miterlimit="10" d="M781.359,502.674l-0.488,0.975l32.92,12.436
	c0-6.828,9.266-61.206,9.266-61.206c-5.121,1.707-39.504,16.582-39.504,16.582C783.798,477.801,781.359,502.674,781.359,502.674z"/>
<path stroke="#000000" stroke-width="0.8297" stroke-miterlimit="10" d="M510.279,720.676c1.637,4.275,13.354,7.018,13.354,7.018
	c-0.119-4.167-5.239-25.742-5.239-25.742c-11.691-0.458-81.868,10.812-81.868,10.812l0.099,0.562
	c-5.986,13.992,3.121,28.225,3.121,28.225c6.794-13.657,8.27-7.219,8.27-7.219c1.059,16.295,7.003,14.682,7.003,14.682
	c-0.879-9.074,1.485-9.183,1.485-9.183c4.563,6.008,15.402,11.493,15.402,11.493c1.593-10.7,5.434-15.972,5.434-15.972
	c2.493,1.98,1.641,19.802,1.641,19.802c5.192,1.063,18.039-2.183,18.039-2.183c15.318-6.812,10.132-21.599,10.132-21.599
	c8.819,4.648,14.424,1.858,14.424,1.858C505.031,724.153,510.279,720.676,510.279,720.676z"/>
<path stroke="#000000" stroke-width="0.2587" stroke-miterlimit="10" d="M382.42,675.32c0.35,0.193,0.596-0.757,0.822-2.313
	C381.858,673.876,381.299,674.702,382.42,675.32z"/>
<path stroke="#000000" stroke-width="0.2587" stroke-miterlimit="10" d="M579.695,631.427
	c-13.331-24.279-39.016-21.459-39.016-21.459c-19.815,0.726-50.721-0.488-50.721-0.488c-18.139,12.056-41.455,9.266-41.455,9.266
	c-13.868-10.907-43.405,12.68-43.405,12.68c-10.54,4.751-19.439,26.483-19.439,26.483c-1.451,4.026-1.875,11.357-2.417,15.097
	c3.56-2.236,12.59-4.759,12.59-4.759c6.176-2.187,28.287-0.244,28.287-0.244c13.615,2.069,44.137-5.121,44.137-5.121
	c18.514,1.353,53.159-3.658,53.159-3.658c19.914-10.767,33.407-9.022,33.407-9.022c22.922,8.047,29.506,1.219,29.506,1.219
	c-5.64-3.575-3.658-7.803-3.658-7.803c2.995,1.045,6.19,1.044,8.849,0.71C582.455,642.604,579.695,631.427,579.695,631.427z"/>
<path stroke="#000000" stroke-width="0.2587" stroke-miterlimit="10" d="M595.545,642.888c0,0-2.557,1.005-6.026,1.441
	c0.492,0.12,1.002,0.199,1.537,0.221C599.261,644.88,595.545,642.888,595.545,642.888z"/>
</svg>
